#!OML:ASF E:\acrobat2\Project_11_07_03\Capture day 1\Session 1\Acrobat.ASF
:FULLY-SPECIFIED
:DEGREES
409
root 10.6305 17.7448 -19.9361 3.91119 -3.53477 -1.05964
lowerback -4.6934 2.97493 1.04057
upperback -0.951763 3.9851 -3.52337
thorax 1.97113 2.00816 -3.95621
lowerneck 0.165451 -1.71846 0.403596
upperneck 1.32257 -2.26654 -2.3074
head 0.342087 -1.14038 -0.772104
rclavicle 5.5287e-015 9.54166e-015
rhumerus -35.1138 2.54187 -88.3753
rradius 33.5713
rwrist 3.36582
rhand -0.570241 -45.8186
rfingers 7.12502
rthumb 25.0441 -74.1967
lclavicle 5.5287e-015 9.54166e-015
lhumerus -36.4582 -5.34653 83.5288
lradius 17.2985
lwrist 3.50429
lhand -4.15711 -6.22028
lfingers 7.12502
lthumb 21.6031 22.5947
rfemur 11.7095 0.0976952 18.7153
rtibia 28.9212
rfoot -2.48368 -6.83729
rtoes 12.6706
lfemur -19.7944 2.74329 -16.1584
ltibia 9.6012
lfoot 2.93366 4.21756
ltoes 38.1877
410
root 10.6608 17.7927 -19.7362 3.67701 -4.19289 -0.796942
lowerback -4.71678 3.10112 0.913657
upperback -0.945841 4.16364 -3.69658
thorax 2.00836 2.09777 -4.05028
lowerneck 0.0371772 -1.65768 0.378905
upperneck 1.68013 -2.17826 -2.31978
head 0.473657 -1.09957 -0.776093
rclavicle 9.10682e-015 -2.8625e-014
rhumerus -35.6264 2.0408 -88.4577
rradius 32.9303
rwrist 3.48647
rhand -0.527322 -45.7853
rfingers 7.12502
rthumb 25.0852 -74.1577
lclavicle 9.10682e-015 -2.8625e-014
lhumerus -36.6591 -4.81842 83.1102
lradius 16.7672
lwrist 2.99381
lhand -3.6289 -5.96693
lfingers 7.12502
lthumb 22.1103 22.7889
rfemur 10.7435 -0.15307 17.7333
rtibia 31.1928
rfoot -0.0612317 -7.50976
rtoes 15.1002
lfemur -18.4105 2.59546 -16.4414
ltibia 9.04862
lfoot 2.28335 4.09539
ltoes 37.8054
411
root 10.6907 17.8375 -19.5422 3.47781 -4.88977 -0.568624
lowerback -4.73155 3.2392 0.826715
upperback -0.95116 4.35534 -3.84795
thorax 2.03183 2.19388 -4.1439
lowerneck -0.0698345 -1.59476 0.350118
upperneck 2.00258 -2.08727 -2.35415
head 0.591368 -1.0573 -0.78564
rclavicle -4.68386e-015 1.11319e-014
rhumerus -36.1174 1.61296 -88.5151
rradius 32.2884
rwrist 3.60578
rhand -0.493496 -45.6789
rfingers 7.12502
rthumb 25.1176 -74.0467
lclavicle -4.68386e-015 1.11319e-014
lhumerus -36.851 -4.40005 82.7607
lradius 16.3312
lwrist 2.60989
lhand -3.08057 -5.714
lfingers 7.12502
lthumb 22.6366 22.9786
rfemur 9.63728 -0.295217 16.8756
rtibia 33.5296
rfoot 2.11468 -8.14315
rtoes 16.8035
lfemur -17.0355 2.49334 -16.6936
ltibia 8.39694
lfoot 1.58521 4.07621
ltoes 37.6212
412
root 10.7187 17.8777 -19.357 3.33492 -5.54108 -0.369635
lowerback -4.72645 3.35536 0.74896
upperback -0.972783 4.51604 -3.9751
thorax 2.02402 2.27394 -4.22146
lowerneck -0.163947 -1.52359 0.321502
upperneck 2.29118 -1.98533 -2.40376
head 0.697065 -1.00953 -0.799375
rclavicle 2.26055e-014 4.77083e-015
rhumerus -36.5766 1.28434 -88.5608
rradius 31.6586
rwrist 3.70105
rhand -0.426572 -45.5521
rfingers 7.12502
rthumb 25.1817 -73.9109
lclavicle 2.26055e-014 4.77083e-015
lhumerus -37.0369 -4.09369 82.4828
lradius 16.0144
lwrist 2.34483
lhand -2.50253 -5.42469
lfingers 7.12502
lthumb 23.1913 23.1991
rfemur 8.38829 -0.40497 16.1511
rtibia 35.9213
rfoot 4.02845 -8.76451
rtoes 17.8986
lfemur -15.7678 2.54075 -16.9396
ltibia 7.75023
lfoot 1.01565 4.01497
ltoes 37.5735
413
root 10.7441 17.9128 -19.1804 3.2413 -6.11194 -0.183649
lowerback -4.70139 3.42851 0.64636
upperback -0.997855 4.61937 -4.07456
thorax 1.9928 2.32471 -4.26197
lowerneck -0.255003 -1.43443 0.303155
upperneck 2.52035 -1.85958 -2.48661
head 0.784411 -0.949804 -0.824285
rclavicle -3.19764e-014 4.77083e-015
rhumerus -36.9859 1.0795 -88.5991
rradius 31.0429
rwrist 3.76821
rhand -0.274898 -45.4594
rfingers 7.12502
rthumb 25.327 -73.7977
lclavicle -3.19764e-014 4.77083e-015
lhumerus -37.2087 -3.86314 82.2725
lradius 15.8227
lwrist 2.17197
lhand -1.86464 -5.02383
lfingers 7.12502
lthumb 23.8032 23.5216
rfemur 7.02608 -0.531376 15.5328
rtibia 38.3413
rfoot 5.59982 -9.35646
rtoes 18.5183
lfemur -14.6327 2.81184 -17.2009
ltibia 7.16401
lfoot 0.670309 3.80742
ltoes 37.4588
414
root 10.7663 17.9419 -19.0145 3.22688 -6.52944 0.0201302
lowerback -4.66435 3.43238 0.466762
upperback -1.03683 4.63244 -4.15366
thorax 1.92539 2.32917 -4.24615
lowerneck -0.351399 -1.33054 0.324572
upperneck 2.67972 -1.71417 -2.63231
head 0.851136 -0.880233 -0.874517
rclavicle -2.00938e-014 1.59028e-015
rhumerus -37.3506 0.989593 -88.6315
rradius 30.4503
rwrist 3.82202
rhand -0.01383 -45.4462
rfingers 7.12502
rthumb 25.5771 -73.7489
lclavicle -2.00938e-014 1.59028e-015
lhumerus -37.358 -3.70091 82.1279
lradius 15.7364
lwrist 2.06236
lhand -1.23225 -4.55834
lfingers 7.12502
lthumb 24.4096 23.9067
rfemur 5.52942 -0.752939 14.9803
rtibia 40.7709
rfoot 6.71812 -9.97512
rtoes 18.5823
lfemur -13.7339 3.3154 -17.5153
ltibia 6.73475
lfoot 0.593584 3.37372
ltoes 37.2035
415
root 10.7874 17.9676 -18.8515 3.21711 -6.92892 0.262841
lowerback -4.64151 3.41803 0.224533
upperback -1.05383 4.6246 -4.2242
thorax 1.88126 2.3232 -4.18628
lowerneck -0.466777 -1.2148 0.402467
upperneck 2.76905 -1.55299 -2.85111
head 0.89944 -0.802795 -0.956422
rclavicle 3.89717e-014 -9.54166e-015
rhumerus -37.674 0.996615 -88.6546
rradius 29.8911
rwrist 3.88351
rhand 0.358262 -45.5266
rfingers 7.12502
rthumb 25.9335 -73.7776
lclavicle 3.89717e-014 -9.54166e-015
lhumerus -37.4824 -3.62623 82.0613
lradius 15.7402
lwrist 2.03537
lhand -0.767099 -4.20783
lfingers 7.12502
lthumb 24.8554 24.1965
rfemur 3.98739 -0.981679 14.4256
rtibia 43.176
rfoot 7.30915 -10.5522
rtoes 18.1121
lfemur -12.8841 3.948 -17.8785
ltibia 6.3478
lfoot 0.604158 2.84679
ltoes 36.8705
416
root 10.807 17.9902 -18.6907 3.21456 -7.29503 0.561793
lowerback -4.64982 3.38096 -0.105718
upperback -1.05148 4.59156 -4.29011
thorax 1.86536 2.30441 -4.07155
lowerneck -0.584963 -1.08993 0.529317
upperneck 2.78744 -1.38044 -3.12578
head 0.926669 -0.719441 -1.06356
rclavicle -2.08487e-014 1.59028e-014
rhumerus -37.9561 1.06927 -88.6607
rradius 29.357
rwrist 3.99838
rhand 0.820372 -45.6449
rfingers 7.12502
rthumb 26.3759 -73.8304
lclavicle -2.08487e-014 1.59028e-014
lhumerus -37.5864 -3.66157 82.0843
lradius 15.819
lwrist 2.14174
lhand -0.489883 -3.98708
lfingers 7.12502
lthumb 25.1211 24.3803
rfemur 2.407 -1.22978 13.8461
rtibia 45.5278
rfoot 7.33169 -11.0725
rtoes 17.2715
lfemur -12.0942 4.58444 -18.3046
ltibia 6.01159
lfoot 0.617205 2.28518
ltoes 36.4881
417
root 10.8252 18.01 -18.5313 3.21433 -7.62344 0.899719
lowerback -4.68717 3.32388 -0.500803
upperback -1.03804 4.536 -4.35013
thorax 1.87038 2.27404 -3.91399
lowerneck -0.666472 -0.960268 0.688863
upperneck 2.7299 -1.20353 -3.4292
head 0.924823 -0.633078 -1.18467
rclavicle -2.76427e-014 4.13472e-014
rhumerus -38.2142 1.17699 -88.6461
rradius 28.8459
rwrist 4.20168
rhand 1.33476 -45.7578
rfingers 7.12502
rthumb 26.8682 -73.8686
lclavicle -2.76427e-014 4.13472e-014
lhumerus -37.688 -3.82958 82.2018
lradius 15.9693
lwrist 2.40945
lhand -0.360102 -3.82537
lfingers 7.12502
lthumb 25.2454 24.5245
rfemur 0.808603 -1.49745 13.2596
rtibia 47.7865
rfoot 6.84679 -11.5104
rtoes 16.2444
lfemur -11.3492 5.07966 -18.7703
ltibia 5.71389
lfoot 0.529596 1.77123
ltoes 36.1079
418
root 10.8428 18.0279 -18.3728 3.19598 -7.91497 1.242
lowerback -4.72359 3.25192 -0.913235
upperback -1.01488 4.46188 -4.39596
thorax 1.8819 2.2342 -3.73319
lowerneck -0.686085 -0.830183 0.857693
upperneck 2.59337 -1.02892 -3.73681
head 0.888699 -0.546522 -1.30812
rclavicle -1.17562e-014 3.65764e-014
rhumerus -38.4696 1.29943 -88.6007
rradius 28.369
rwrist 4.50691
rhand 1.87874 -45.8743
rfingers 7.12502
rthumb 27.3886 -73.9039
lclavicle -1.17562e-014 3.65764e-014
lhumerus -37.8002 -4.13507 82.4167
lradius 16.1853
lwrist 2.82759
lhand -0.342904 -3.84759
lfingers 7.12502
lthumb 25.2619 24.4999
rfemur -0.769848 -1.78279 12.7023
rtibia 49.9071
rfoot 6.02335 -11.8296
rtoes 15.2159
lfemur -10.6054 5.34455 -19.2391
ltibia 5.42605
lfoot 0.289141 1.36757
ltoes 35.7752
419
root 10.8598 18.045 -18.2159 3.13409 -8.16115 1.54423
lowerback -4.70631 3.16957 -1.29468
upperback -0.984837 4.37061 -4.41658
thorax 1.8708 2.18585 -3.5478
lowerneck -0.63423 -0.707345 1.00915
upperneck 2.41381 -0.866479 -4.0123
head 0.827634 -0.464579 -1.41835
rclavicle 2.84899e-014 -2.06736e-014
rhumerus -38.7425 1.39934 -88.5113
rradius 27.9365
rwrist 4.93202
rhand 2.43317 -46.0162
rfingers 7.12502
rthumb 27.9188 -73.9608
lclavicle 2.84899e-014 -2.06736e-014
lhumerus -37.9289 -4.5624 82.718
lradius 16.4468
lwrist 3.34314
lhand -0.429444 -4.06444
lfingers 7.12502
lthumb 25.179 24.2948
rfemur -2.27967 -2.08105 12.2308
rtibia 51.8504
rfoot 5.05359 -12.0222
rtoes 14.3851
lfemur -9.82716 5.38375 -19.6638
ltibia 5.14494
lfoot -0.0813282 1.0758
ltoes 35.4742
